<svg xmlns="http://www.w3.org/2000/svg" viewBox="0 0 165 49">
    <g fill="none" fill-rule="evenodd">
        <path fill="#006B9C" d="m7.877 6.603 12.624 6.16L24.268 0z"/>
        <path fill="#56C4CF" d="m24.268 0-3.767 12.763 16.914-8.511z"/>
        <path fill="#0795B6" d="m20.5 12.763 13.622 1.687 3.292-10.196z"/>
        <path fill="#56C4CF" d="m20.5 35.877 16.914 8.511-3.292-10.198z"/>
        <path fill="#0795B6" d="m24.268 48.641 13.147-4.253-16.914-8.51z"/>
        <path fill="#56C4CF" d="m7.878 42.038 16.39 6.603L20.5 35.877z"/>
        <path fill="#0795B6" d="M7.877 42.038 20.5 35.877 6.396 22.843z"/>
        <path fill="#004C7A" d="m.263 24.32 7.615 17.718-1.481-19.195z"/>
        <path fill="#006B9C" d="m.263 24.32 6.134-1.477 1.481-16.24z"/>
        <path fill="#5DB5CD" d="M7.877 6.603 20.5 12.764 6.396 22.843z"/>
        <path fill="#006B9C" d="m6.396 22.843 7.392 1.478L20.5 12.763z"/>
        <path fill="#5DB5CD" d="M6.396 22.843 20.5 35.877l-6.712-11.556z"/>
    </g>
</svg>